<svg xmlns="http://www.w3.org/2000/svg" viewBox="0 0 880 240" role="img" aria-labelledby="title desc">
  <title id="title">A.M.P.H.I.T.R.U.O</title>
  <desc id="desc">Logo roxa, preta e prata para o aplicativo A.M.P.H.I.T.R.U.O.</desc>
  <defs>
    <linearGradient id="violet" x1="0" y1="0" x2="1" y2="1">
      <stop offset="0" stop-color="#d2a8ff"/>
      <stop offset="0.48" stop-color="#9a5cff"/>
      <stop offset="1" stop-color="#5d239b"/>
    </linearGradient>
    <linearGradient id="silver" x1="0" y1="0" x2="1" y2="1">
      <stop offset="0" stop-color="#ffffff"/>
      <stop offset="0.5" stop-color="#bfc0ca"/>
      <stop offset="1" stop-color="#747681"/>
    </linearGradient>
  </defs>
  <rect width="880" height="240" rx="32" fill="#09070d"/>
  <path d="M120 28 202 76v88l-82 48-82-48V76z" fill="#12101a" stroke="url(#silver)" stroke-width="5"/>
  <path d="M120 52 177 85v66l-57 33-57-33V85z" fill="none" stroke="url(#violet)" stroke-width="12"/>
  <path d="M86 150 120 78l34 72M100 122h40" fill="none" stroke="url(#silver)" stroke-linecap="round" stroke-linejoin="round" stroke-width="9"/>
  <circle cx="120" cy="32" r="8" fill="#d2a8ff"/>
  <path d="M238 94h28l13-31 13 31h28l-22 18 8 29-27-17-27 17 8-29z" fill="url(#violet)"/>
  <text x="242" y="151" fill="url(#silver)" font-family="Arial, Helvetica, sans-serif" font-size="66" font-weight="700" letter-spacing="8">AMPHITRUO</text>
  <text x="246" y="190" fill="#a9aab4" font-family="Arial, Helvetica, sans-serif" font-size="17" letter-spacing="5">ANÁLISE • MERCADO • PROTEÇÃO • HORIZONTE</text>
</svg>
